<?xml version="1.0" encoding="UTF-8" standalone="no"?>
<!-- Created with Inkscape (http://www.inkscape.org/) -->

<svg
   width="210mm"
   height="297mm"
   viewBox="0 0 210 297"
   version="1.1"
   id="svg1"
   inkscape:version="1.3.2 (091e20ef0f, 2023-11-25)"
   sodipodi:docname="cbase.svg"
   xmlns:inkscape="http://www.inkscape.org/namespaces/inkscape"
   xmlns:sodipodi="http://sodipodi.sourceforge.net/DTD/sodipodi-0.dtd"
   xmlns="http://www.w3.org/2000/svg"
   xmlns:svg="http://www.w3.org/2000/svg">
  <sodipodi:namedview
     id="namedview1"
     pagecolor="#505050"
     bordercolor="#eeeeee"
     borderopacity="1"
     inkscape:showpageshadow="0"
     inkscape:pageopacity="0"
     inkscape:pagecheckerboard="0"
     inkscape:deskcolor="#d1d1d1"
     inkscape:document-units="mm"
     inkscape:zoom="1.5154524"
     inkscape:cx="388.66281"
     inkscape:cy="264.93738"
     inkscape:window-width="3840"
     inkscape:window-height="2099"
     inkscape:window-x="0"
     inkscape:window-y="0"
     inkscape:window-maximized="1"
     inkscape:current-layer="layer1" />
  <defs
     id="defs1" />
  <g
     inkscape:label="Layer 1"
     inkscape:groupmode="layer"
     id="layer1">
    <path
       inkscape:connector-curvature="0"
       id="path2991"
       d="M 107.55286,32.3771 108.90274,47.692225 C 111.16949,48.429672 113.01389,49.91612 113.02408,52.76855 113.03435,55.620986 110.99784,57.385042 108.75914,57.909497 L 109.48432,85.402057 111.2418,90.559792 C 111.2418,90.559792 113.95997,90.729744 114.92147,91.36341 115.88295,91.997071 116.55134,93.811819 116.55134,93.811819 116.55134,93.811819 114.84395,96.149245 107.72519,96.050125 100.60644,95.951005 98.498619,93.800559 98.498619,93.800559 98.498619,93.800559 99.524425,91.934736 100.48751,91.35215 101.45059,90.769564 103.70072,90.541675 103.70072,90.541675 L 105.47784,85.402057 106.53331,57.923856 C 104.15448,57.423179 102.36884,55.310669 102.36884,52.782912 V 52.639309 C 102.43813,50.162902 104.21108,48.125113 106.54767,47.641968 Z M 103.97583,75.450451 103.75325,81.266323 C 68.764906,81.504681 42.377036,88.23094 26.970732,98.498535 37.124385,98.323255 48.327671,98.653075 57.371243,98.498535 66.963235,92.971042 82.392038,88.849205 102.12254,88.335387 L 101.49201,89.380761 C 99.853068,89.661716 100.07733,89.557992 99.114248,90.140668 98.151199,90.723185 97.125391,92.589077 97.125391,92.589077 L 96.881262,92.732677 C 89.639273,94.461185 87.81392,98.062685 87.857886,100.34382 87.919201,103.52707 92.249562,106.96493 107.56723,106.97822 122.8849,106.99131 127.64994,103.77864 127.64994,99.977635 127.64994,97.101835 125.36365,94.003645 117.7845,92.610863 L 117.71989,92.560605 C 117.47483,92.002419 116.97733,90.657852 116.27841,90.197289 115.3169,89.563559 113.58985,89.372628 113.58985,89.372628 L 113.09986,88.497724 C 124.3544,88.640909 133.3261,89.793307 142.03165,91.777975 L 160.24036,86.644209 C 145.41919,83.421214 129.32413,81.508171 111.31373,81.381205 L 111.1322,75.554512 C 177.21011,75.950646 231.57455,96.595195 231.57455,122.97546 231.57455,149.61136 177.33837,171.20413 110.43211,171.20413 103.69931,171.20413 98.018145,170.98546 91.584352,170.56509 L 66.561749,160.70682 70.022536,154.43861 96.2586,150.05157 C 99.607408,136.96077 101.96437,124.40429 104.73108,111.19293 106.75826,111.17616 108.78544,111.1594 110.81265,111.14267 L 123.19829,149.4269 C 160.45727,146.9965 205.75553,137.77848 207.69358,115.72357 207.69358,109.33591 202.38252,103.34462 193.31186,98.211335 L 159.90292,98.204135 C 165.37947,101.33362 168.51183,105.02778 168.51183,108.99581 168.51183,119.1737 147.99309,127.63622 119.78639,129.35854 L 116.60561,120.29727 C 139.41101,119.21088 156.00412,113.13526 156.00412,105.79349 156.00412,99.916275 148.56245,94.236875 131.67796,91.555376 142.57096,94.433635 149.65691,99.125765 149.65691,103.89076 149.65691,110.81807 135.84539,117.02888 115.85886,118.17914 L 113.36019,111.06367 C 129.66477,110.46875 140.77515,106.41743 140.77515,101.38491 140.77515,98.034545 135.25451,95.302725 126.7668,93.695045 L 124.50508,93.436555 C 130.77023,95.070845 134.63618,97.643835 134.63618,100.3438 134.63618,104.92028 122.7566,109.5056 107.67494,109.5056 92.593256,109.5056 80.840626,105.63417 80.749617,101.80136 80.687244,99.175405 82.319996,95.582175 90.765829,93.594525 81.938231,95.304325 76.405661,98.338935 76.405661,101.8588 76.405661,106.92535 86.003865,110.59139 102.22587,111.08522 L 100.49545,118.31556 C 80.064742,117.44775 67.042827,111.55249 67.042827,104.47235 67.042827,100.49833 71.870777,96.414385 79.730032,93.400655 68.606147,96.413835 61.514136,101.03933 61.514136,105.79349 61.514136,113.2872 77.037768,119.51605 100.2298,120.41215 L 98.01833,129.5165 C 68.732421,128.21425 48.819743,119.51858 48.819743,108.99581 48.819743,108.6334 48.846688,108.26952 48.898726,107.91161 40.638144,109.56152 32.438622,111.02363 24.041271,112.49969 L 4.324746,99.388865 C 23.160603,83.599268 56.518626,75.60855 103.97583,75.450451 Z M 103.68863,82.989544 103.58471,85.358744 103.06845,86.529097 C 79.63803,86.813751 62.416254,89.778572 52.041659,96.215521 H 40.122693 C 54.169787,87.711028 75.641326,83.246835 103.68863,82.989544 Z M 111.59009,83.145743 C 126.85094,83.289208 137.71475,84.512147 150.2591,87.232979 L 141.99483,89.523426 C 131.87051,87.338153 124.49405,86.890011 112.09892,86.714634 L 111.53168,85.537096 111.37469,83.145743 Z M 118.47707,94.718284 125.72946,99.251849 C 125.61559,105.33437 109.55378,105.25895 107.84009,105.27678 106.12637,105.29469 89.734013,105.25704 89.869115,99.589894 L 96.445975,94.821451 C 96.445975,94.821451 99.832858,98.272572 107.61823,98.256232 115.40357,98.239922 118.47707,94.718284 118.47707,94.718284 Z M 170.59806,101.01356 185.28852,101.05664 C 192.83952,105.70247 195.64539,108.92333 195.64539,114.69681 195.03914,132.47788 157.05257,142.3524 125.1404,144.75266 L 120.77724,132.07981 C 145.27256,130.37959 176.45649,124.67041 177.81004,109.77845 177.81004,105.86297 176.16455,104.29972 170.59806,101.01356 Z"
       style="fill:#000000;fill-opacity:1;stroke:none;stroke-width:0.301038"
       sodipodi:nodetypes="ccccccscscscccsccccccccccccccscccccccccssccccccccccsccscsccsccssscsccscsccsccccccccccccccccccccccccccccccc" />
  </g>
</svg>
